<svg width="40" height="33" viewBox="0 0 40 33" fill="none" xmlns="http://www.w3.org/2000/svg">
<path d="M5.19474 12.7954C5.19474 12.7954 6.35318 11.3038 5.60399 9.23219C4.85219 7.16192 3.10147 6.37561 3.10147 6.37561C3.10147 6.37561 1.79137 8.1533 2.52356 10.1713C3.25445 12.1907 5.19474 12.7954 5.19474 12.7954Z" fill="rgb(128,140,162)"/>
<path d="M8.41826 13.8578C8.41826 13.8578 10.4435 13.6959 11.6033 11.8868C12.763 10.0791 11.8765 8.05713 11.8765 8.05713C11.8765 8.05713 9.99638 8.43853 8.80527 10.2946C7.61545 12.1494 8.41826 13.8578 8.41826 13.8578Z" fill="rgb(128,140,162)"/>
<path d="M8.60687 16.2452C7.66939 18.2397 8.68792 19.8305 8.68792 19.8305C8.68792 19.8305 10.6766 19.4048 11.5892 17.4625C12.5005 15.5176 11.3578 13.6289 11.3578 13.6289C11.3578 13.6289 9.54432 14.2506 8.60687 16.2452Z" fill="rgb(128,140,162)"/>
<path d="M13.1973 17.8494C13.1973 17.8494 11.4492 18.6409 10.704 20.7125C9.95872 22.7879 11.1211 24.2745 11.1211 24.2745C11.1211 24.2745 13.0588 23.6645 13.7857 21.6437C14.5114 19.6232 13.1973 17.8494 13.1973 17.8494Z" fill="rgb(128,140,162)"/>
<path d="M14.6428 28.7634C14.6428 28.7634 16.3243 27.6205 16.438 25.4771C16.5504 23.3323 14.7788 22.0131 14.7788 22.0131C14.7788 22.0131 13.3327 23.2736 13.2164 25.4732C13.1013 27.6714 14.6428 28.7634 14.6428 28.7634Z" fill="rgb(128,140,162)"/>
<path d="M7.77417 8.80553C7.77417 8.80553 9.56672 8.20729 10.0923 6.06911C10.6192 3.93091 9.60072 2.30603 9.60072 2.30603C9.60072 2.30603 7.52445 3.05838 7.01059 5.14433C6.49806 7.22898 7.77417 8.80553 7.77417 8.80553Z" fill="rgb(128,140,162)"/>
<path d="M5.19218 17.3417C5.19218 17.3417 5.85769 15.5744 4.5306 13.8176C3.20089 12.0595 1.2972 11.8231 1.2972 11.8231C1.2972 11.8231 0.570237 13.9078 1.86465 15.6215C3.15905 17.3365 5.19218 17.3417 5.19218 17.3417Z" fill="rgb(128,140,162)"/>
<path d="M6.68544 22.0009C6.68544 22.0009 6.94039 20.1303 5.25635 18.7119C3.5697 17.2921 1.66078 17.4854 1.66078 17.4854C1.66078 17.4854 1.41498 19.6798 3.05717 21.0631C4.70199 22.4449 6.68544 22.0009 6.68544 22.0009Z" fill="rgb(128,140,162)"/>
<path d="M8.93972 25.8594C8.93972 25.8594 8.61938 23.9994 6.58232 23.1583C4.54396 22.3144 2.78409 23.0759 2.78409 23.0759C2.78409 23.0759 3.21556 25.2415 5.20032 26.0644C7.18507 26.8834 8.93972 25.8594 8.93972 25.8594Z" fill="rgb(128,140,162)"/>
<path d="M9.91759 27.465C7.79424 26.8719 6.13635 27.8372 6.13635 27.8372C6.13635 27.8372 6.82279 29.935 8.89123 30.5136C10.9623 31.0921 12.5809 29.8658 12.5809 29.8658C12.5809 29.8658 12.0409 28.0567 9.91759 27.465Z" fill="rgb(128,140,162)"/>
<path d="M7.98817 10.0762L7.04417 9.61255C6.99448 9.71573 2.1385 20.0201 15.7834 31.6725L16.4659 30.8743C3.47474 19.7785 7.79728 10.4668 7.98817 10.0762Z" fill="rgb(128,140,162)"/>
<path d="M34.4973 12.776C34.4973 12.776 33.3375 11.2844 34.088 9.21409C34.8373 7.14251 36.5893 6.3562 36.5893 6.3562C36.5893 6.3562 37.898 8.13258 37.1658 10.1519C36.4376 12.1713 34.4973 12.776 34.4973 12.776Z" fill="rgb(128,140,162)"/>
<path d="M31.2837 13.8347C31.2837 13.8347 29.2584 13.6715 28.0973 11.8637C26.9375 10.056 27.824 8.03406 27.824 8.03406C27.824 8.03406 29.7042 8.41546 30.8966 10.2702C32.0864 12.1263 31.2837 13.8347 31.2837 13.8347Z" fill="rgb(128,140,162)"/>
<path d="M31.0773 16.2221C32.0147 18.2166 30.9962 19.8075 30.9962 19.8075C30.9962 19.8075 29.0074 19.3817 28.0936 17.4394C27.1836 15.4946 28.3249 13.6058 28.3249 13.6058C28.3249 13.6058 30.1398 14.2289 31.0773 16.2221Z" fill="rgb(128,140,162)"/>
<path d="M26.4893 17.8317C26.4893 17.8317 28.236 18.6219 28.9826 20.6974C29.7278 22.7716 28.5642 24.258 28.5642 24.258C28.5642 24.258 26.6278 23.6467 25.9009 21.6262C25.174 19.6054 26.4893 17.8317 26.4893 17.8317Z" fill="rgb(128,140,162)"/>
<path d="M25.0376 28.7397C25.0376 28.7397 23.3575 27.5983 23.2438 25.4536C23.1313 23.3088 24.9042 21.9883 24.9042 21.9883C24.9042 21.9883 26.3478 23.2486 26.4655 25.4496C26.5818 27.6505 25.0376 28.7397 25.0376 28.7397Z" fill="rgb(128,140,162)"/>
<path d="M31.9127 8.78376C31.9127 8.78376 30.1227 8.18554 29.5971 6.04734C29.0702 3.90914 30.0902 2.28296 30.0902 2.28296C30.0902 2.28296 32.1664 3.03531 32.6789 5.12257C33.1915 7.2059 31.9127 8.78376 31.9127 8.78376Z" fill="rgb(128,140,162)"/>
<path d="M34.4995 17.3203C34.4995 17.3203 33.834 15.5531 35.1596 13.7963C36.4895 12.0382 38.3944 11.8018 38.3944 11.8018C38.3944 11.8018 39.1227 13.8864 37.8269 15.6001C36.5313 17.3151 34.4995 17.3203 34.4995 17.3203Z" fill="rgb(128,140,162)"/>
<path d="M33.0253 21.9879C33.0253 21.9879 32.7691 20.1174 34.4544 18.6963C36.1411 17.2778 38.05 17.4711 38.05 17.4711C38.05 17.4711 38.2958 19.6668 36.6522 21.0488C35.0087 22.4306 33.0253 21.9879 33.0253 21.9879Z" fill="rgb(128,140,162)"/>
<path d="M30.7386 25.8424C30.7386 25.8424 31.0604 23.9812 33.0973 23.1386C35.1371 22.2948 36.8956 23.0562 36.8956 23.0562C36.8956 23.0562 36.4642 25.2219 34.4793 26.0435C32.4933 26.8664 30.7386 25.8424 30.7386 25.8424Z" fill="rgb(128,140,162)"/>
<path d="M29.7629 27.4395C31.8864 26.8479 33.5456 27.8117 33.5456 27.8117C33.5456 27.8117 32.8604 29.9083 30.7907 30.4908C28.7209 31.0668 27.1022 29.8403 27.1022 29.8403C27.1022 29.8403 27.6409 28.0326 29.7629 27.4395Z" fill="rgb(128,140,162)"/>
<path d="M31.6853 10.062L32.632 9.59827C32.6816 9.70145 37.5376 20.0059 23.8914 31.6568L23.2102 30.8588C36.1987 19.7655 31.8762 10.4512 31.6853 10.062Z" fill="rgb(128,140,162)"/>
</svg>
